<mxfile host="app.diagrams.net" modified="2023-04-10T03:29:16.133Z" agent="Mozilla/5.0 (Macintosh; Intel Mac OS X 10_15_7) AppleWebKit/537.36 (KHTML, like Gecko) Chrome/110.0.0.0 Safari/537.36" etag="ovwXVwz-VwIDRgChf9TO" version="21.1.5" type="github">
  <diagram name="Page-1" id="mkmA5igbdkyf4VgWwPyJ">
    <mxGraphModel dx="1026" dy="633" grid="0" gridSize="10" guides="1" tooltips="1" connect="1" arrows="1" fold="1" page="1" pageScale="1" pageWidth="850" pageHeight="1100" math="0" shadow="0">
      <root>
        <mxCell id="0" />
        <mxCell id="1" parent="0" />
        <mxCell id="klZNDZdQJCAvAYYKmm0R-2" value="Customer" style="swimlane;childLayout=stackLayout;horizontal=1;startSize=50;horizontalStack=0;rounded=1;fontSize=14;fontStyle=0;strokeWidth=2;resizeParent=0;resizeLast=1;shadow=0;dashed=0;align=center;arcSize=4;whiteSpace=wrap;html=1;" vertex="1" parent="1">
          <mxGeometry x="30" y="360" width="220" height="240" as="geometry" />
        </mxCell>
        <mxCell id="klZNDZdQJCAvAYYKmm0R-195" value="" style="endArrow=none;html=1;rounded=0;" edge="1" parent="klZNDZdQJCAvAYYKmm0R-2">
          <mxGeometry relative="1" as="geometry">
            <mxPoint y="80" as="sourcePoint" />
            <mxPoint x="160" y="80" as="targetPoint" />
          </mxGeometry>
        </mxCell>
        <mxCell id="klZNDZdQJCAvAYYKmm0R-3" value="CustomerID&lt;br&gt;&lt;br&gt;Name (First name, Last name)&lt;br&gt;&lt;br&gt;Address(street address, city, state, zip)&lt;br&gt;&lt;br&gt;Cell_Phone number&lt;br&gt;&lt;br&gt;Email&lt;br&gt;&lt;br&gt;Birthday&amp;nbsp;" style="align=left;strokeColor=none;fillColor=none;spacingLeft=4;fontSize=12;verticalAlign=top;resizable=0;rotatable=0;part=1;html=1;" vertex="1" parent="klZNDZdQJCAvAYYKmm0R-2">
          <mxGeometry y="50" width="220" height="190" as="geometry" />
        </mxCell>
        <mxCell id="klZNDZdQJCAvAYYKmm0R-175" value="Ski Pair" style="swimlane;childLayout=stackLayout;horizontal=1;startSize=50;horizontalStack=0;rounded=1;fontSize=14;fontStyle=0;strokeWidth=2;resizeParent=0;resizeLast=1;shadow=0;dashed=0;align=center;arcSize=4;whiteSpace=wrap;html=1;" vertex="1" parent="1">
          <mxGeometry x="620" y="360" width="150" height="200" as="geometry" />
        </mxCell>
        <mxCell id="klZNDZdQJCAvAYYKmm0R-198" value="" style="endArrow=none;html=1;rounded=0;" edge="1" parent="klZNDZdQJCAvAYYKmm0R-175">
          <mxGeometry relative="1" as="geometry">
            <mxPoint y="80" as="sourcePoint" />
            <mxPoint x="90" y="80" as="targetPoint" />
          </mxGeometry>
        </mxCell>
        <mxCell id="klZNDZdQJCAvAYYKmm0R-176" value="SkiID&lt;br&gt;&lt;br&gt;Date of purchase&lt;br&gt;&lt;br&gt;Last tuning date" style="align=left;strokeColor=none;fillColor=none;spacingLeft=4;fontSize=12;verticalAlign=top;resizable=0;rotatable=0;part=1;html=1;" vertex="1" parent="klZNDZdQJCAvAYYKmm0R-175">
          <mxGeometry y="50" width="150" height="150" as="geometry" />
        </mxCell>
        <mxCell id="klZNDZdQJCAvAYYKmm0R-177" value="SKI Model" style="swimlane;childLayout=stackLayout;horizontal=1;startSize=50;horizontalStack=0;rounded=1;fontSize=14;fontStyle=0;strokeWidth=2;resizeParent=0;resizeLast=1;shadow=0;dashed=0;align=center;arcSize=4;whiteSpace=wrap;html=1;" vertex="1" parent="1">
          <mxGeometry x="450" y="60" width="200" height="190" as="geometry" />
        </mxCell>
        <mxCell id="klZNDZdQJCAvAYYKmm0R-196" value="" style="endArrow=none;html=1;rounded=0;" edge="1" parent="klZNDZdQJCAvAYYKmm0R-177">
          <mxGeometry relative="1" as="geometry">
            <mxPoint x="10" y="80" as="sourcePoint" />
            <mxPoint x="100" y="80" as="targetPoint" />
            <Array as="points" />
          </mxGeometry>
        </mxCell>
        <mxCell id="klZNDZdQJCAvAYYKmm0R-178" value="SkiModelID&lt;br&gt;&lt;br&gt;Weight&lt;br&gt;Length&lt;br&gt;Skill level&lt;br&gt;Gender Type&lt;br&gt;Terrain Type&lt;br&gt;" style="align=left;strokeColor=none;fillColor=none;spacingLeft=4;fontSize=12;verticalAlign=top;resizable=0;rotatable=0;part=1;html=1;" vertex="1" parent="klZNDZdQJCAvAYYKmm0R-177">
          <mxGeometry y="50" width="200" height="140" as="geometry" />
        </mxCell>
        <mxCell id="klZNDZdQJCAvAYYKmm0R-189" value="" style="swimlane;childLayout=stackLayout;horizontal=1;startSize=50;horizontalStack=0;rounded=1;fontSize=14;fontStyle=0;strokeWidth=2;resizeParent=0;resizeLast=1;shadow=0;dashed=0;align=center;arcSize=4;whiteSpace=wrap;html=1;" vertex="1" parent="1">
          <mxGeometry x="320" y="400" width="160" height="190" as="geometry" />
        </mxCell>
        <mxCell id="klZNDZdQJCAvAYYKmm0R-199" value="" style="endArrow=none;html=1;rounded=0;" edge="1" parent="klZNDZdQJCAvAYYKmm0R-189">
          <mxGeometry relative="1" as="geometry">
            <mxPoint y="79.5" as="sourcePoint" />
            <mxPoint x="110" y="79.5" as="targetPoint" />
          </mxGeometry>
        </mxCell>
        <mxCell id="klZNDZdQJCAvAYYKmm0R-190" value="CustomerID_SkiID&lt;br&gt;&lt;br&gt;Rental date&lt;br&gt;&lt;br&gt;Return date&lt;br&gt;&lt;br&gt;Rental fee" style="align=left;strokeColor=none;fillColor=none;spacingLeft=4;fontSize=12;verticalAlign=top;resizable=0;rotatable=0;part=1;html=1;" vertex="1" parent="klZNDZdQJCAvAYYKmm0R-189">
          <mxGeometry y="50" width="160" height="140" as="geometry" />
        </mxCell>
        <mxCell id="klZNDZdQJCAvAYYKmm0R-200" value="" style="edgeStyle=entityRelationEdgeStyle;fontSize=12;html=1;endArrow=ERoneToMany;startArrow=ERmandOne;rounded=0;" edge="1" parent="1">
          <mxGeometry width="100" height="100" relative="1" as="geometry">
            <mxPoint x="650" y="205" as="sourcePoint" />
            <mxPoint x="617" y="439" as="targetPoint" />
          </mxGeometry>
        </mxCell>
        <mxCell id="klZNDZdQJCAvAYYKmm0R-202" value="" style="edgeStyle=entityRelationEdgeStyle;fontSize=12;html=1;endArrow=ERoneToMany;startArrow=ERmandOne;rounded=0;" edge="1" parent="1" target="klZNDZdQJCAvAYYKmm0R-190">
          <mxGeometry width="100" height="100" relative="1" as="geometry">
            <mxPoint x="250" y="490" as="sourcePoint" />
            <mxPoint x="350" y="390" as="targetPoint" />
          </mxGeometry>
        </mxCell>
        <mxCell id="klZNDZdQJCAvAYYKmm0R-203" value="" style="edgeStyle=entityRelationEdgeStyle;fontSize=12;html=1;endArrow=ERoneToMany;startArrow=ERmandOne;rounded=0;entryX=1.006;entryY=0.686;entryDx=0;entryDy=0;entryPerimeter=0;exitX=-0.007;exitY=0.32;exitDx=0;exitDy=0;exitPerimeter=0;" edge="1" parent="1" source="klZNDZdQJCAvAYYKmm0R-176" target="klZNDZdQJCAvAYYKmm0R-190">
          <mxGeometry width="100" height="100" relative="1" as="geometry">
            <mxPoint x="620" y="490" as="sourcePoint" />
            <mxPoint x="720" y="390" as="targetPoint" />
          </mxGeometry>
        </mxCell>
      </root>
    </mxGraphModel>
  </diagram>
</mxfile>
